<svg width="24" height="24" viewBox="0 0 24 24" fill="none" xmlns="http://www.w3.org/2000/svg">
  <!-- OK gesture (pinch) -->
  <path d="M12 2C9 2 7 4 7 6.5C7 7 7.2 7.5 7.5 8L8 9C8 9 8 10 9 11C10 12 11 12 12 12C13 12 14 12 15 11C16 10 16 9 16 9L16.5 8C16.8 7.5 17 7 17 6.5C17 4 15 2 12 2Z" stroke="currentColor" stroke-width="1.5" stroke-linecap="round" stroke-linejoin="round"/>
  <circle cx="9" cy="8" r="2.5" stroke="currentColor" stroke-width="1.5" fill="none"/>
  <path d="M7 12L6 18C6 20 7 22 9 22C10 22 10.5 21.5 11 21L12 19" stroke="currentColor" stroke-width="1.5" stroke-linecap="round"/>
  <path d="M17 12L18 18C18 20 17 22 15 22C14 22 13.5 21.5 13 21L12 19" stroke="currentColor" stroke-width="1.5" stroke-linecap="round"/>
</svg>
