<?xml version="1.0" standalone="no"?>
<!DOCTYPE svg PUBLIC "-//W3C//DTD SVG 20010904//EN"
 "http://www.w3.org/TR/2001/REC-SVG-20010904/DTD/svg10.dtd">
<svg version="1.0" xmlns="http://www.w3.org/2000/svg"
 width="198.000000pt" height="242.000000pt" viewBox="0 0 198.000000 242.000000"
 preserveAspectRatio="xMidYMid meet">

<g transform="translate(0.000000,242.000000) scale(0.100000,-0.100000)"
fill="#000000" stroke="none">
<path d="M815 2357 c-51 -29 -83 -77 -91 -138 -4 -27 -10 -49 -14 -49 -4 0
-21 7 -39 16 -48 24 -138 15 -189 -18 -57 -39 -83 -99 -90 -209 -2 -49 -6 -89
-7 -89 -1 0 -19 7 -38 15 -82 34 -177 8 -238 -64 -57 -66 -62 -98 -55 -331 13
-390 34 -648 60 -751 33 -129 80 -240 130 -302 40 -51 41 -54 46 -149 5 -85 8
-100 30 -123 36 -39 120 -74 244 -102 96 -22 134 -26 286 -26 146 0 190 3 265
22 163 39 205 81 205 202 l0 67 53 40 c62 48 137 139 197 237 60 99 286 460
327 522 81 122 43 252 -86 298 -68 24 -158 20 -218 -10 -47 -24 -147 -118
-185 -175 -16 -24 -17 -12 -18 240 -1 146 -3 337 -6 425 -4 143 -7 165 -29
211 -31 63 -86 97 -160 98 -27 1 -60 -3 -72 -7 -19 -7 -23 -3 -32 29 -34 122
-169 182 -276 121z m178 -87 l28 -32 -5 -286 c-4 -158 -9 -376 -12 -485 -6
-207 -3 -227 37 -227 10 0 23 9 28 19 6 11 13 180 17 412 7 433 8 439 68 464
65 27 138 -16 151 -89 3 -17 6 -232 8 -477 l2 -447 -85 -6 c-195 -16 -349
-109 -433 -264 -30 -55 -29 -92 1 -92 25 0 34 9 70 67 18 28 54 71 81 96 86
81 157 107 310 116 l114 6 40 65 c119 196 227 276 335 250 72 -17 107 -49 106
-96 0 -31 -19 -68 -95 -189 -53 -82 -147 -233 -209 -335 -175 -283 -278 -375
-462 -416 -99 -22 -118 -30 -118 -53 0 -33 25 -44 82 -36 50 6 121 24 161 40
14 6 17 1 17 -34 0 -50 -19 -64 -122 -94 -99 -28 -380 -30 -506 -4 -94 20
-178 51 -204 74 -15 14 -27 93 -14 93 2 0 23 -7 46 -15 57 -20 87 -19 99 3 13
25 -10 58 -46 66 -45 11 -131 73 -164 119 -81 109 -135 280 -149 476 -22 295
-38 713 -29 746 13 44 50 89 89 105 24 10 39 10 70 1 69 -20 72 -36 81 -355 8
-283 9 -295 45 -296 30 0 33 32 36 451 3 471 1 457 71 499 61 37 137 16 156
-43 8 -22 10 -140 7 -362 -5 -387 0 -488 27 -493 43 -8 44 -3 51 450 4 238 11
466 16 506 14 109 49 146 130 138 34 -3 51 -11 73 -36z"/>
</g>
</svg>
