<?xml version="1.0" standalone="no"?>
<!DOCTYPE svg PUBLIC "-//W3C//DTD SVG 20010904//EN"
 "http://www.w3.org/TR/2001/REC-SVG-20010904/DTD/svg10.dtd">
<svg version="1.0" xmlns="http://www.w3.org/2000/svg"
 width="164.000000pt" height="232.000000pt" viewBox="0 0 164.000000 232.000000"
 preserveAspectRatio="xMidYMid meet">

<g transform="translate(0.000000,232.000000) scale(0.100000,-0.100000)"
fill="#000000" stroke="none">
<path d="M1022 2289 c-57 -11 -103 -40 -135 -86 -44 -65 -51 -115 -44 -348 l7
-212 -69 -5 c-98 -7 -133 -31 -197 -136 -1 -2 -19 1 -40 7 -85 23 -187 -26
-225 -109 -23 -48 -26 -50 -56 -45 -70 12 -154 -32 -191 -99 -24 -43 -23 -249
2 -365 45 -209 112 -368 197 -465 35 -40 36 -44 41 -134 5 -102 17 -128 78
-170 83 -56 298 -88 520 -79 238 11 370 49 426 122 26 35 29 47 33 134 l3 96
53 57 c107 115 178 325 179 528 1 101 -2 120 -21 157 -37 69 -127 124 -225
138 -47 7 -48 8 -49 44 0 20 -6 207 -13 416 -14 401 -15 414 -66 485 -22 30
-86 65 -135 72 -16 3 -49 1 -73 -3z m110 -100 c34 -18 57 -88 62 -185 3 -49 8
-226 12 -393 l7 -304 -34 6 c-19 4 -65 9 -104 13 -76 8 -85 14 -85 59 0 17 -9
62 -21 100 -16 56 -22 117 -30 310 -12 306 -4 355 59 389 32 18 105 21 134 5z
m-260 -669 c9 -11 19 -46 23 -78 3 -31 11 -81 17 -110 10 -47 9 -55 -8 -75
-53 -59 -60 -160 -17 -239 30 -56 24 -68 -34 -68 -45 0 -82 42 -121 139 -60
150 -82 333 -49 398 37 71 142 90 189 33z m-313 -110 c14 -7 20 -27 25 -82 9
-95 29 -172 73 -282 39 -98 39 -138 0 -174 -60 -56 -127 -45 -171 30 -34 59
-74 167 -91 250 -18 83 -18 111 -4 178 9 41 17 55 42 71 34 20 97 25 126 9z
m-281 -156 c12 -8 22 -26 22 -39 0 -53 33 -175 70 -259 37 -83 38 -90 25 -121
-24 -59 -91 -74 -143 -30 -87 73 -146 360 -87 425 36 40 78 49 113 24z m866
-24 c43 -12 121 -29 173 -40 169 -34 210 -81 200 -229 -8 -111 -49 -268 -93
-351 -61 -116 -132 -178 -252 -220 -62 -22 -78 -32 -80 -50 -7 -42 23 -45 132
-14 27 8 51 14 53 14 10 0 1 -99 -12 -116 -39 -57 -194 -87 -440 -87 -236 1
-383 34 -415 92 -8 17 -15 91 -7 91 1 0 24 -7 51 -15 27 -8 66 -15 88 -15 34
0 38 3 38 25 0 15 -7 28 -17 32 -75 26 -165 77 -201 114 -58 58 -155 229 -140
244 3 3 26 0 51 -7 59 -15 114 0 166 47 l37 34 44 -15 c47 -16 105 -12 151 12
27 13 83 72 91 94 3 9 14 9 48 0 50 -14 87 -8 148 21 24 12 45 19 48 16 3 -3
-19 -28 -49 -56 -67 -63 -114 -145 -97 -166 18 -22 48 -18 61 7 23 44 105 121
154 145 47 24 54 25 106 14 77 -16 97 -14 109 9 19 35 -3 56 -72 69 -168 32
-258 87 -271 166 -12 75 10 119 70 140 48 18 37 18 127 -5z"/>
</g>
</svg>
