<svg width="24" height="24" viewBox="0 0 24 24" fill="none" xmlns="http://www.w3.org/2000/svg">
  <!-- Pointing gesture -->
  <path d="M12 2L12 12M12 2L10 4M12 2L14 4" stroke="currentColor" stroke-width="1.5" stroke-linecap="round" stroke-linejoin="round"/>
  <path d="M8 14C8 12 9 12 10 12C10 12 10 12 12 12" stroke="currentColor" stroke-width="1.5" stroke-linecap="round"/>
  <path d="M12 12C14 12 14 12 14 12C15 12 16 12 16 14" stroke="currentColor" stroke-width="1.5" stroke-linecap="round"/>
  <path d="M8 14L7 18C7 20 8 22 10 22C11 22 11.5 21.5 12 21L12 19" stroke="currentColor" stroke-width="1.5" stroke-linecap="round"/>
  <path d="M16 14L17 18C17 20 16 22 14 22C13 22 12.5 21.5 12 21L12 19" stroke="currentColor" stroke-width="1.5" stroke-linecap="round"/>
  <circle cx="12" cy="15" r="1.5" fill="currentColor"/>
</svg>
