<?xml version="1.0" standalone="no"?>
<!DOCTYPE svg PUBLIC "-//W3C//DTD SVG 20010904//EN"
 "http://www.w3.org/TR/2001/REC-SVG-20010904/DTD/svg10.dtd">
<svg version="1.0" xmlns="http://www.w3.org/2000/svg"
 width="168.000000pt" height="234.000000pt" viewBox="0 0 168.000000 234.000000"
 preserveAspectRatio="xMidYMid meet">

<g transform="translate(0.000000,234.000000) scale(0.100000,-0.100000)"
fill="#000000" stroke="none">
<path d="M675 2261 c-49 -22 -99 -77 -115 -126 -15 -46 -8 -93 24 -159 102
-210 156 -329 152 -334 -3 -2 -25 1 -50 7 -120 30 -188 6 -379 -132 -93 -67
-120 -116 -122 -216 -1 -67 -4 -77 -23 -87 -93 -47 -126 -151 -97 -309 9 -49
21 -116 26 -148 26 -154 89 -235 289 -367 83 -54 90 -64 90 -119 0 -142 74
-198 300 -232 106 -15 353 -6 435 16 139 37 246 107 266 174 8 29 9 68 1 148
-9 105 -9 109 14 149 35 59 80 246 99 402 8 75 23 198 33 272 11 85 17 204 17
320 0 172 -2 189 -23 235 -44 94 -94 129 -187 127 l-60 0 -24 79 c-44 146 -97
199 -195 199 -45 0 -136 -36 -151 -60 -3 -6 -30 22 -58 62 -80 111 -165 143
-262 99z m157 -119 c45 -51 102 -158 145 -271 34 -90 83 -290 90 -367 l6 -65
-106 68 -105 68 -28 70 c-15 39 -65 148 -110 243 -46 95 -84 183 -84 195 0 28
32 77 62 93 48 27 83 18 130 -34z m385 -122 c60 -120 102 -364 109 -630 3
-102 7 -191 9 -197 3 -7 13 -13 24 -13 16 0 21 11 30 63 14 78 14 253 1 411
-11 132 -10 136 45 136 43 0 71 -23 92 -77 15 -40 18 -75 17 -208 -1 -88 -8
-216 -17 -285 -9 -69 -23 -188 -32 -265 -19 -164 -54 -314 -93 -393 -16 -35
-55 -85 -99 -129 -49 -48 -71 -77 -67 -88 9 -22 32 -18 91 14 l52 29 7 -54 c5
-42 3 -60 -10 -79 -43 -65 -161 -110 -337 -127 -100 -10 -134 -9 -240 5 -121
17 -193 40 -215 68 -6 8 -14 31 -17 53 l-6 38 37 -8 c67 -13 87 -11 90 12 3
18 -11 29 -80 64 -170 87 -360 235 -399 311 -10 21 -26 82 -34 136 -9 54 -21
121 -27 149 -14 67 -3 120 32 156 32 32 69 36 114 13 15 -8 34 -15 41 -15 19
0 53 -47 65 -89 5 -20 17 -63 25 -95 26 -94 57 -118 193 -150 62 -14 118 -26
125 -26 17 0 117 163 117 191 0 13 -7 46 -15 73 -8 27 -15 65 -15 85 0 20 -4
41 -8 47 -10 16 -183 124 -198 124 -7 0 -47 -18 -89 -40 -131 -66 -217 -64
-250 7 -21 44 -16 110 11 146 24 33 229 167 273 179 45 13 89 4 185 -38 102
-44 250 -143 364 -244 94 -82 122 -92 122 -43 0 16 -17 46 -43 77 l-43 51 -13
130 c-16 167 -39 272 -108 487 -3 12 7 30 30 53 33 33 41 36 84 33 46 -3 49
-5 70 -48z m-531 -881 c27 -17 52 -36 55 -41 4 -6 12 -43 19 -83 l12 -73 -32
-47 c-33 -47 -33 -47 -80 -42 -65 8 -115 30 -135 61 -9 14 -23 53 -31 88 -8
35 -17 72 -20 83 -4 17 7 25 63 52 38 17 75 32 84 32 8 1 37 -13 65 -30z"/>
</g>
</svg>
